<?xml version="1.0" standalone="no"?>
<!DOCTYPE svg PUBLIC "-//W3C//DTD SVG 20010904//EN"
 "http://www.w3.org/TR/2001/REC-SVG-20010904/DTD/svg10.dtd">
<svg version="1.0" xmlns="http://www.w3.org/2000/svg"
 width="1000.000000pt" height="1000.000000pt" viewBox="0 0 1000.000000 1000.000000"
 preserveAspectRatio="xMidYMid meet">
<metadata>
Created by potrace 1.14, written by Peter Selinger 2001-2017
</metadata>
<g transform="translate(0.000000,1000.000000) scale(0.100000,-0.100000)"
fill="#000000" stroke="none">
<path d="M7027 9983 c-1 -1 -25 -5 -52 -8 -40 -5 -203 -39 -285 -60 -73 -18
-304 -103 -340 -126 -21 -12 -84 -42 -92 -43 -4 -1 -13 -7 -20 -13 -6 -7 -20
-13 -29 -13 -10 0 -19 -4 -21 -8 -1 -5 -34 -27 -73 -49 -148 -86 -289 -198
-435 -343 -97 -96 -178 -189 -258 -295 -48 -65 -180 -293 -210 -365 -13 -30
-31 -71 -40 -90 -9 -19 -17 -37 -17 -40 0 -3 -9 -30 -20 -60 -10 -30 -18 -57
-18 -60 1 -3 -3 -13 -9 -23 -9 -18 -13 -33 -24 -87 -3 -14 -8 -34 -11 -45 -8
-24 -7 -19 -17 -75 -5 -25 -10 -54 -12 -65 -21 -106 -35 -366 -24 -450 l5 -40
55 -3 c120 -7 197 -2 298 18 72 14 82 17 149 38 34 11 65 17 68 14 3 -3 5 0 5
6 0 7 9 12 21 12 11 0 33 6 47 14 15 8 74 37 132 64 58 28 122 62 143 76 21
14 41 26 44 26 3 0 21 11 39 25 18 14 35 25 38 25 3 0 27 16 53 36 27 20 61
45 77 57 100 74 290 254 371 351 22 27 48 57 58 67 9 11 17 21 17 24 0 3 9 16
21 28 23 24 134 188 170 252 37 67 99 193 99 203 0 6 3 12 8 14 7 3 30 61 64
163 11 33 23 67 26 75 3 8 6 20 7 25 2 6 10 37 18 70 25 96 44 210 52 310 5
61 5 267 0 315 -2 19 -4 40 -4 46 -1 10 -66 16 -74 7z"/>
<path d="M6836 7623 c-1 -1 -38 -5 -81 -8 -44 -3 -87 -7 -95 -10 -8 -2 -37 -6
-65 -10 -27 -3 -70 -11 -95 -16 -25 -6 -56 -13 -70 -15 -14 -3 -34 -8 -45 -11
-26 -9 -45 -14 -70 -18 -11 -2 -21 -4 -22 -5 -2 -2 -6 -3 -10 -4 -51 -13 -122
-35 -238 -72 -177 -58 -165 -54 -169 -51 -1 1 -9 -3 -17 -9 -8 -6 -27 -15 -44
-19 -16 -5 -34 -9 -40 -11 -5 -1 -62 -21 -125 -43 -63 -23 -116 -41 -117 -41
-3 -1 -7 -2 -68 -21 -22 -7 -44 -14 -50 -15 -5 -2 -41 -12 -80 -24 -38 -12
-77 -23 -85 -25 -36 -8 -117 -27 -140 -32 -45 -10 -116 -3 -195 18 -22 6 -47
13 -55 14 -8 2 -15 4 -15 5 0 1 -10 3 -22 6 -12 2 -41 11 -65 19 -24 9 -52 18
-63 20 -11 3 -42 14 -70 24 -27 11 -126 47 -220 81 -93 34 -177 64 -185 67 -8
4 -17 7 -20 8 -3 1 -43 14 -90 29 -47 15 -92 29 -100 32 -37 9 -96 25 -110 29
-27 8 -94 24 -125 29 -16 3 -41 9 -55 12 -14 3 -41 8 -60 10 -19 2 -40 6 -47
8 -64 25 -361 26 -503 2 -14 -3 -45 -7 -70 -10 -25 -3 -56 -8 -70 -11 -14 -3
-47 -10 -75 -16 -65 -14 -80 -17 -80 -19 0 -1 -8 -3 -19 -5 -54 -10 -122 -29
-131 -35 -5 -4 -26 -11 -45 -15 -49 -10 -244 -87 -252 -100 -4 -5 -8 -6 -8 -2
0 5 -30 -8 -67 -27 -37 -20 -73 -36 -80 -36 -7 0 -13 -3 -13 -8 0 -4 -13 -13
-29 -20 -16 -7 -57 -31 -91 -52 -33 -22 -65 -40 -70 -40 -6 0 -10 -4 -10 -10
0 -5 -6 -10 -14 -10 -8 0 -16 -3 -18 -7 -2 -5 -37 -33 -78 -64 -41 -32 -86
-65 -99 -75 -53 -42 -261 -254 -316 -324 -33 -41 -62 -77 -65 -80 -7 -7 -42
-57 -91 -131 -23 -35 -50 -76 -60 -91 -23 -33 -147 -275 -176 -343 -43 -100
-115 -293 -128 -345 -2 -8 -13 -47 -24 -85 -20 -69 -66 -271 -75 -330 -3 -16
-7 -39 -9 -50 -3 -12 -8 -48 -12 -80 -4 -33 -9 -69 -11 -80 -2 -11 -7 -49 -10
-85 -3 -36 -8 -85 -10 -110 -8 -62 -8 -588 -1 -675 6 -73 12 -131 23 -225 12
-108 10 -94 39 -265 7 -44 16 -90 18 -101 3 -12 8 -37 11 -55 3 -19 15 -77 27
-129 12 -52 22 -103 23 -112 0 -10 3 -18 6 -18 4 0 7 -6 8 -12 1 -15 9 -53 17
-78 3 -10 8 -29 10 -41 4 -21 15 -56 66 -219 30 -94 107 -313 129 -365 5 -11
25 -60 45 -110 77 -191 224 -493 325 -670 13 -22 34 -60 48 -85 57 -101 165
-271 282 -445 41 -60 201 -278 209 -285 3 -3 19 -23 36 -45 16 -22 31 -42 34
-45 4 -3 35 -41 71 -85 89 -110 106 -129 230 -266 86 -94 182 -190 223 -222
15 -12 40 -32 55 -45 48 -41 215 -148 276 -177 100 -46 171 -69 286 -93 41 -8
328 -8 380 1 62 10 104 18 145 28 22 6 47 12 55 13 8 2 22 6 30 9 12 5 106 33
140 42 3 1 19 7 35 14 17 6 55 21 85 32 30 12 75 30 99 41 111 49 305 115 423
144 10 2 27 6 38 9 53 13 67 16 95 20 17 2 48 7 70 11 60 10 100 14 213 19 57
2 107 7 112 10 6 4 10 3 10 -2 0 -4 33 -8 73 -9 71 -1 177 -11 207 -19 8 -2
31 -6 50 -9 68 -11 96 -17 170 -37 41 -11 82 -22 90 -24 32 -7 191 -65 335
-123 155 -62 247 -93 350 -119 33 -8 69 -17 80 -19 11 -3 31 -7 45 -9 14 -2
50 -7 80 -11 65 -10 293 -11 365 -2 89 11 318 78 335 97 3 3 31 19 62 35 77
38 179 107 253 170 33 28 70 60 84 71 13 11 54 48 90 83 36 34 70 62 75 62 5
0 7 2 4 5 -2 3 29 41 71 84 42 44 92 99 111 122 19 23 40 47 45 53 22 24 86
106 149 191 36 50 70 95 74 100 22 29 132 195 132 199 0 3 13 24 29 48 49 73
285 499 286 518 0 3 24 54 53 113 28 59 52 110 52 112 0 2 13 32 29 67 68 149
201 479 201 499 0 8 -51 39 -117 71 -110 53 -212 107 -223 118 -3 3 -37 26
-76 53 -39 26 -81 55 -92 65 -11 9 -36 28 -54 42 -35 26 -190 172 -217 203 -9
11 -31 35 -49 55 -18 21 -59 71 -90 112 -31 41 -60 77 -64 78 -5 2 -8 7 -8 12
0 5 -17 35 -38 67 -43 64 -52 79 -102 179 -19 38 -37 71 -40 74 -3 3 -21 43
-38 90 -18 47 -37 94 -42 105 -9 21 -57 177 -65 210 -43 196 -43 201 -60 365
-7 72 -3 425 5 425 1 0 3 14 5 30 13 101 29 189 47 249 6 23 12 46 14 53 6 31
47 151 59 173 7 14 13 30 14 35 1 16 35 89 44 96 5 3 8 8 7 10 -4 8 13 59 19
59 3 0 12 15 20 33 8 17 28 55 45 82 18 28 38 62 46 78 7 15 17 27 22 27 4 0
8 5 8 11 0 39 276 349 409 459 29 25 59 50 65 55 19 17 147 108 218 155 l67
43 -21 31 c-70 101 -254 302 -361 392 -65 56 -156 124 -165 124 -6 0 -12 3
-14 8 -5 12 -228 152 -243 152 -2 0 -45 20 -95 44 -50 25 -93 45 -95 46 -6 1
-19 5 -87 30 -32 12 -59 20 -61 18 -2 -2 -11 3 -20 11 -10 7 -17 11 -17 7 0
-3 -15 0 -32 7 -18 8 -58 19 -88 26 -30 7 -62 15 -70 18 -8 3 -22 7 -30 9 -27
5 -85 17 -95 20 -30 7 -128 23 -180 30 -11 1 -20 3 -20 4 0 1 -22 3 -50 5 -27
2 -50 4 -50 5 0 6 -313 19 -319 13z"/>
</g>
</svg>
